<svg width="650" height="107" viewBox="0 0 650 107" fill="none" xmlns="http://www.w3.org/2000/svg">
<g filter="url(#filter0_f_13287_1293)">
<path d="M27.725 77.0397C25.805 77.0397 24.365 75.5197 24.365 73.7597V26.8797C24.365 24.6397 25.645 23.3597 27.885 23.3597H45.805C56.525 23.3597 62.525 30.7197 62.525 39.4397C62.525 48.1597 56.365 55.5197 45.805 55.5197H31.005V73.7597C31.005 75.5197 29.485 77.0397 27.725 77.0397ZM55.645 39.4397C55.645 33.4397 51.325 29.2797 45.005 29.2797H31.005V49.5997H45.005C51.325 49.5997 55.645 45.4397 55.645 39.4397ZM87.6381 37.4397C89.3981 37.4397 90.3581 38.7997 90.3581 40.3197C90.3581 41.7597 89.1581 43.0397 87.0781 43.2797C83.5581 43.5197 78.8381 46.2397 77.0781 49.3597V74.0797C77.0781 75.6797 75.7181 77.0397 74.1181 77.0397C72.4381 77.0397 71.0781 75.6797 71.0781 74.0797V40.7197C71.0781 39.1197 72.4381 37.7597 74.0381 37.7597C75.7181 37.7597 77.0781 39.1197 77.0781 40.7197V44.3197C79.3981 41.1997 82.5981 38.6397 85.7181 37.8397C86.5181 37.5997 86.9981 37.4397 87.6381 37.4397ZM114.364 77.6797C102.604 77.6797 95.2444 68.5597 95.2444 57.3597C95.2444 46.1597 102.604 37.1197 114.364 37.1197C126.124 37.1197 133.484 46.1597 133.484 57.3597C133.484 68.5597 126.124 77.6797 114.364 77.6797ZM114.364 72.3197C122.604 72.3197 127.164 65.2797 127.164 57.3597C127.164 49.5197 122.604 42.4797 114.364 42.4797C106.124 42.4797 101.484 49.5197 101.484 57.3597C101.484 65.2797 106.124 72.3197 114.364 72.3197ZM146.226 30.2397C144.066 30.2397 142.226 28.4797 142.226 26.2397C142.226 23.9997 144.066 22.1597 146.226 22.1597C148.466 22.1597 150.306 23.9997 150.306 26.2397C150.306 28.4797 148.466 30.2397 146.226 30.2397ZM137.906 92.3997C137.266 92.3997 136.626 92.3197 135.986 92.2397C134.706 92.1597 133.586 91.0397 133.586 89.6797C133.586 88.3197 134.626 87.0397 135.906 87.0397C136.226 87.0397 136.466 87.1997 137.266 87.1997C140.786 87.1997 143.266 85.3597 143.266 80.4797V40.7197C143.266 39.1197 144.626 37.7597 146.306 37.7597C147.906 37.7597 149.266 39.1197 149.266 40.7197V80.4797C149.266 88.0797 145.186 92.3997 137.906 92.3997ZM158.994 57.3597C158.994 46.1597 166.994 37.1197 178.034 37.1197C189.714 37.1197 196.594 46.2397 196.594 56.3197C196.594 58.2397 195.314 59.3597 193.074 59.3597H165.314C165.794 66.6397 170.914 72.7197 179.234 72.7197C182.994 72.7197 186.594 71.4397 189.634 69.0397C190.034 68.7997 190.514 68.7197 190.994 68.7197C192.354 68.7197 193.474 69.7597 193.474 71.1197C193.474 71.9197 193.074 72.6397 192.434 73.1197C188.594 76.0797 184.034 77.6797 178.674 77.6797C167.234 77.6797 158.994 69.4397 158.994 57.3597ZM177.954 42.0797C169.714 42.0797 165.634 49.0397 165.314 54.9597H190.674C190.594 49.1997 186.754 42.0797 177.954 42.0797ZM204.073 57.3597C204.073 45.9197 211.833 37.1197 223.353 37.1197C228.953 37.1197 232.713 38.9597 235.753 41.9197C236.233 42.3997 236.633 43.1197 236.633 43.9197C236.633 45.4397 235.433 46.6397 233.913 46.6397C233.193 46.6397 232.553 46.3197 232.153 45.9197C229.673 43.4397 226.953 42.4797 223.673 42.4797C215.433 42.4797 210.312 48.7997 210.312 57.3597C210.312 65.9197 215.433 72.3197 223.673 72.3197C226.953 72.3197 229.673 71.3597 232.073 68.8797C232.553 68.3997 233.193 68.1597 233.913 68.1597C235.433 68.1597 236.633 69.3597 236.633 70.8797C236.633 71.6797 236.233 72.4797 235.753 72.8797C232.713 75.8397 228.953 77.6797 223.353 77.6797C211.833 77.6797 204.073 68.8797 204.073 57.3597ZM260.082 71.5997C261.602 71.5997 262.642 72.6397 262.642 74.1597C262.642 75.2797 262.082 75.9997 261.122 76.3997C259.762 77.1997 258.082 77.6797 255.682 77.6797C250.002 77.6797 247.122 74.3997 247.122 68.6397V43.3597H243.042C241.602 43.3597 240.402 42.1597 240.402 40.7197C240.402 39.2797 241.602 38.0797 243.042 38.0797H247.122V30.1597C247.122 28.5597 248.482 27.1997 250.162 27.1997C251.762 27.1997 253.122 28.5597 253.122 30.1597V38.0797H258.642C260.082 38.0797 261.362 39.2797 261.362 40.7197C261.362 42.1597 260.082 43.3597 258.642 43.3597H253.122V67.3597C253.122 70.2397 254.402 72.3197 257.042 72.3197C258.722 72.3197 259.282 71.5997 260.082 71.5997ZM268.238 41.9197C268.238 39.5197 270.238 37.5197 272.638 37.5197C275.038 37.5197 277.038 39.5197 277.038 41.9197C277.038 44.3197 275.038 46.3197 272.638 46.3197C270.238 46.3197 268.238 44.3197 268.238 41.9197ZM268.238 73.1197C268.238 70.7197 270.238 68.7197 272.638 68.7197C275.038 68.7197 277.038 70.7197 277.038 73.1197C277.038 75.5197 275.038 77.5197 272.638 77.5197C270.238 77.5197 268.238 75.5197 268.238 73.1197ZM333.78 77.6797C318.66 77.6797 306.58 66.4797 306.58 50.0797C306.58 33.6797 318.66 22.4797 333.78 22.4797C341.7 22.4797 347.7 25.5197 352.1 30.2397C352.66 30.7997 352.9 31.5997 352.9 32.3997C352.9 34.0797 351.46 35.5197 349.78 35.5197C348.74 35.5197 347.94 35.1197 347.38 34.4797C344.02 30.7997 339.22 28.3997 333.78 28.3997C322.34 28.3997 313.46 37.3597 313.46 50.0797C313.46 62.7197 322.34 71.7597 333.78 71.7597C339.22 71.7597 344.1 69.4397 347.38 65.6797C347.94 65.0397 348.74 64.6397 349.78 64.6397C351.46 64.6397 352.9 65.9997 352.9 67.7597C352.9 68.5597 352.66 69.3597 352.1 69.9197C347.54 74.7197 341.78 77.6797 333.78 77.6797ZM365.054 30.2397C362.894 30.2397 361.054 28.4797 361.054 26.2397C361.054 23.9997 362.894 22.1597 365.054 22.1597C367.294 22.1597 369.134 23.9997 369.134 26.2397C369.134 28.4797 367.294 30.2397 365.054 30.2397ZM365.054 77.0397C363.454 77.0397 362.094 75.6797 362.094 74.0797V40.7197C362.094 39.1197 363.454 37.7597 365.134 37.7597C366.734 37.7597 368.094 39.1197 368.094 40.7197V74.0797C368.094 75.6797 366.734 77.0397 365.054 77.0397ZM394.223 71.5997C395.743 71.5997 396.783 72.6397 396.783 74.1597C396.783 75.2797 396.223 75.9997 395.263 76.3997C393.903 77.1997 392.223 77.6797 389.823 77.6797C384.143 77.6797 381.263 74.3997 381.263 68.6397V43.3597H377.183C375.743 43.3597 374.543 42.1597 374.543 40.7197C374.543 39.2797 375.743 38.0797 377.183 38.0797H381.263V30.1597C381.263 28.5597 382.623 27.1997 384.303 27.1997C385.903 27.1997 387.263 28.5597 387.263 30.1597V38.0797H392.783C394.223 38.0797 395.503 39.2797 395.503 40.7197C395.503 42.1597 394.223 43.3597 392.783 43.3597H387.263V67.3597C387.263 70.2397 388.543 72.3197 391.183 72.3197C392.863 72.3197 393.423 71.5997 394.223 71.5997ZM401.498 89.5997C401.498 88.0797 402.858 86.9597 404.378 86.9597C404.618 86.9597 405.018 87.0397 405.658 87.0397C408.298 87.0397 410.058 86.1597 411.418 82.9597L413.978 77.1197L399.418 41.9197C399.258 41.5197 399.178 41.1997 399.178 40.7997C399.178 39.1197 400.458 37.7597 402.138 37.7597C403.418 37.7597 404.538 38.5597 404.938 39.5997L417.178 69.7597L429.338 39.5997C429.738 38.5597 430.938 37.7597 432.138 37.7597C433.898 37.7597 435.178 39.1197 435.178 40.7997C435.178 41.1997 435.098 41.5997 434.938 41.9997L417.178 84.5597C414.858 90.1597 410.938 92.3197 405.818 92.3997C405.258 92.3997 404.698 92.3997 404.058 92.2397C402.538 92.0797 401.498 90.9597 401.498 89.5997ZM504.782 77.0397C502.942 77.0397 501.502 75.5197 501.502 73.7597V52.2397H470.302V73.7597C470.302 75.5197 468.782 77.0397 467.022 77.0397C465.102 77.0397 463.662 75.5197 463.662 73.7597V26.3197C463.662 24.5597 465.102 23.0397 466.942 23.0397C468.782 23.0397 470.302 24.5597 470.302 26.3197V46.3197H501.502V26.3197C501.502 24.5597 502.942 23.0397 504.862 23.0397C506.702 23.0397 508.142 24.5597 508.142 26.3197V73.7597C508.142 75.5197 506.702 77.0397 504.782 77.0397ZM518.135 57.3597C518.135 46.1597 526.135 37.1197 537.175 37.1197C548.855 37.1197 555.735 46.2397 555.735 56.3197C555.735 58.2397 554.455 59.3597 552.215 59.3597H524.455C524.935 66.6397 530.055 72.7197 538.375 72.7197C542.135 72.7197 545.735 71.4397 548.775 69.0397C549.175 68.7997 549.655 68.7197 550.135 68.7197C551.495 68.7197 552.615 69.7597 552.615 71.1197C552.615 71.9197 552.215 72.6397 551.575 73.1197C547.735 76.0797 543.175 77.6797 537.815 77.6797C526.375 77.6797 518.135 69.4397 518.135 57.3597ZM537.095 42.0797C528.855 42.0797 524.775 49.0397 524.455 54.9597H549.815C549.735 49.1997 545.895 42.0797 537.095 42.0797ZM582.013 37.4397C583.773 37.4397 584.733 38.7997 584.733 40.3197C584.733 41.7597 583.533 43.0397 581.453 43.2797C577.933 43.5197 573.213 46.2397 571.453 49.3597V74.0797C571.453 75.6797 570.093 77.0397 568.493 77.0397C566.813 77.0397 565.453 75.6797 565.453 74.0797V40.7197C565.453 39.1197 566.813 37.7597 568.413 37.7597C570.093 37.7597 571.453 39.1197 571.453 40.7197V44.3197C573.773 41.1997 576.973 38.6397 580.093 37.8397C580.893 37.5997 581.373 37.4397 582.013 37.4397ZM622.819 23.0397C624.499 23.0397 625.859 24.3997 625.859 25.9997V74.0797C625.859 75.6797 624.499 77.0397 622.819 77.0397C621.219 77.0397 619.859 75.6797 619.859 74.0797V70.9597C616.979 74.8797 612.259 77.6797 606.819 77.6797C596.739 77.6797 589.619 69.9997 589.619 57.4397C589.619 45.1197 596.659 37.1197 606.819 37.1197C612.019 37.1197 616.659 39.6797 619.859 43.9997V25.9997C619.859 24.3997 621.219 23.0397 622.819 23.0397ZM608.259 72.3197C613.059 72.3197 617.699 69.5997 619.859 66.2397V48.7197C617.699 45.3597 613.059 42.4797 608.259 42.4797C600.499 42.4797 595.859 48.8797 595.859 57.4397C595.859 65.9997 600.499 72.3197 608.259 72.3197Z" fill="black"/>
</g>
<g filter="url(#filter1_d_13287_1293)">
<path d="M27.725 77.0397C25.805 77.0397 24.365 75.5197 24.365 73.7597V26.8797C24.365 24.6397 25.645 23.3597 27.885 23.3597H45.805C56.525 23.3597 62.525 30.7197 62.525 39.4397C62.525 48.1597 56.365 55.5197 45.805 55.5197H31.005V73.7597C31.005 75.5197 29.485 77.0397 27.725 77.0397ZM55.645 39.4397C55.645 33.4397 51.325 29.2797 45.005 29.2797H31.005V49.5997H45.005C51.325 49.5997 55.645 45.4397 55.645 39.4397ZM87.6381 37.4397C89.3981 37.4397 90.3581 38.7997 90.3581 40.3197C90.3581 41.7597 89.1581 43.0397 87.0781 43.2797C83.5581 43.5197 78.8381 46.2397 77.0781 49.3597V74.0797C77.0781 75.6797 75.7181 77.0397 74.1181 77.0397C72.4381 77.0397 71.0781 75.6797 71.0781 74.0797V40.7197C71.0781 39.1197 72.4381 37.7597 74.0381 37.7597C75.7181 37.7597 77.0781 39.1197 77.0781 40.7197V44.3197C79.3981 41.1997 82.5981 38.6397 85.7181 37.8397C86.5181 37.5997 86.9981 37.4397 87.6381 37.4397ZM114.364 77.6797C102.604 77.6797 95.2444 68.5597 95.2444 57.3597C95.2444 46.1597 102.604 37.1197 114.364 37.1197C126.124 37.1197 133.484 46.1597 133.484 57.3597C133.484 68.5597 126.124 77.6797 114.364 77.6797ZM114.364 72.3197C122.604 72.3197 127.164 65.2797 127.164 57.3597C127.164 49.5197 122.604 42.4797 114.364 42.4797C106.124 42.4797 101.484 49.5197 101.484 57.3597C101.484 65.2797 106.124 72.3197 114.364 72.3197ZM146.226 30.2397C144.066 30.2397 142.226 28.4797 142.226 26.2397C142.226 23.9997 144.066 22.1597 146.226 22.1597C148.466 22.1597 150.306 23.9997 150.306 26.2397C150.306 28.4797 148.466 30.2397 146.226 30.2397ZM137.906 92.3997C137.266 92.3997 136.626 92.3197 135.986 92.2397C134.706 92.1597 133.586 91.0397 133.586 89.6797C133.586 88.3197 134.626 87.0397 135.906 87.0397C136.226 87.0397 136.466 87.1997 137.266 87.1997C140.786 87.1997 143.266 85.3597 143.266 80.4797V40.7197C143.266 39.1197 144.626 37.7597 146.306 37.7597C147.906 37.7597 149.266 39.1197 149.266 40.7197V80.4797C149.266 88.0797 145.186 92.3997 137.906 92.3997ZM158.994 57.3597C158.994 46.1597 166.994 37.1197 178.034 37.1197C189.714 37.1197 196.594 46.2397 196.594 56.3197C196.594 58.2397 195.314 59.3597 193.074 59.3597H165.314C165.794 66.6397 170.914 72.7197 179.234 72.7197C182.994 72.7197 186.594 71.4397 189.634 69.0397C190.034 68.7997 190.514 68.7197 190.994 68.7197C192.354 68.7197 193.474 69.7597 193.474 71.1197C193.474 71.9197 193.074 72.6397 192.434 73.1197C188.594 76.0797 184.034 77.6797 178.674 77.6797C167.234 77.6797 158.994 69.4397 158.994 57.3597ZM177.954 42.0797C169.714 42.0797 165.634 49.0397 165.314 54.9597H190.674C190.594 49.1997 186.754 42.0797 177.954 42.0797ZM204.073 57.3597C204.073 45.9197 211.833 37.1197 223.353 37.1197C228.953 37.1197 232.713 38.9597 235.753 41.9197C236.233 42.3997 236.633 43.1197 236.633 43.9197C236.633 45.4397 235.433 46.6397 233.913 46.6397C233.193 46.6397 232.553 46.3197 232.153 45.9197C229.673 43.4397 226.953 42.4797 223.673 42.4797C215.433 42.4797 210.312 48.7997 210.312 57.3597C210.312 65.9197 215.433 72.3197 223.673 72.3197C226.953 72.3197 229.673 71.3597 232.073 68.8797C232.553 68.3997 233.193 68.1597 233.913 68.1597C235.433 68.1597 236.633 69.3597 236.633 70.8797C236.633 71.6797 236.233 72.4797 235.753 72.8797C232.713 75.8397 228.953 77.6797 223.353 77.6797C211.833 77.6797 204.073 68.8797 204.073 57.3597ZM260.082 71.5997C261.602 71.5997 262.642 72.6397 262.642 74.1597C262.642 75.2797 262.082 75.9997 261.122 76.3997C259.762 77.1997 258.082 77.6797 255.682 77.6797C250.002 77.6797 247.122 74.3997 247.122 68.6397V43.3597H243.042C241.602 43.3597 240.402 42.1597 240.402 40.7197C240.402 39.2797 241.602 38.0797 243.042 38.0797H247.122V30.1597C247.122 28.5597 248.482 27.1997 250.162 27.1997C251.762 27.1997 253.122 28.5597 253.122 30.1597V38.0797H258.642C260.082 38.0797 261.362 39.2797 261.362 40.7197C261.362 42.1597 260.082 43.3597 258.642 43.3597H253.122V67.3597C253.122 70.2397 254.402 72.3197 257.042 72.3197C258.722 72.3197 259.282 71.5997 260.082 71.5997ZM268.238 41.9197C268.238 39.5197 270.238 37.5197 272.638 37.5197C275.038 37.5197 277.038 39.5197 277.038 41.9197C277.038 44.3197 275.038 46.3197 272.638 46.3197C270.238 46.3197 268.238 44.3197 268.238 41.9197ZM268.238 73.1197C268.238 70.7197 270.238 68.7197 272.638 68.7197C275.038 68.7197 277.038 70.7197 277.038 73.1197C277.038 75.5197 275.038 77.5197 272.638 77.5197C270.238 77.5197 268.238 75.5197 268.238 73.1197ZM333.78 77.6797C318.66 77.6797 306.58 66.4797 306.58 50.0797C306.58 33.6797 318.66 22.4797 333.78 22.4797C341.7 22.4797 347.7 25.5197 352.1 30.2397C352.66 30.7997 352.9 31.5997 352.9 32.3997C352.9 34.0797 351.46 35.5197 349.78 35.5197C348.74 35.5197 347.94 35.1197 347.38 34.4797C344.02 30.7997 339.22 28.3997 333.78 28.3997C322.34 28.3997 313.46 37.3597 313.46 50.0797C313.46 62.7197 322.34 71.7597 333.78 71.7597C339.22 71.7597 344.1 69.4397 347.38 65.6797C347.94 65.0397 348.74 64.6397 349.78 64.6397C351.46 64.6397 352.9 65.9997 352.9 67.7597C352.9 68.5597 352.66 69.3597 352.1 69.9197C347.54 74.7197 341.78 77.6797 333.78 77.6797ZM365.054 30.2397C362.894 30.2397 361.054 28.4797 361.054 26.2397C361.054 23.9997 362.894 22.1597 365.054 22.1597C367.294 22.1597 369.134 23.9997 369.134 26.2397C369.134 28.4797 367.294 30.2397 365.054 30.2397ZM365.054 77.0397C363.454 77.0397 362.094 75.6797 362.094 74.0797V40.7197C362.094 39.1197 363.454 37.7597 365.134 37.7597C366.734 37.7597 368.094 39.1197 368.094 40.7197V74.0797C368.094 75.6797 366.734 77.0397 365.054 77.0397ZM394.223 71.5997C395.743 71.5997 396.783 72.6397 396.783 74.1597C396.783 75.2797 396.223 75.9997 395.263 76.3997C393.903 77.1997 392.223 77.6797 389.823 77.6797C384.143 77.6797 381.263 74.3997 381.263 68.6397V43.3597H377.183C375.743 43.3597 374.543 42.1597 374.543 40.7197C374.543 39.2797 375.743 38.0797 377.183 38.0797H381.263V30.1597C381.263 28.5597 382.623 27.1997 384.303 27.1997C385.903 27.1997 387.263 28.5597 387.263 30.1597V38.0797H392.783C394.223 38.0797 395.503 39.2797 395.503 40.7197C395.503 42.1597 394.223 43.3597 392.783 43.3597H387.263V67.3597C387.263 70.2397 388.543 72.3197 391.183 72.3197C392.863 72.3197 393.423 71.5997 394.223 71.5997ZM401.498 89.5997C401.498 88.0797 402.858 86.9597 404.378 86.9597C404.618 86.9597 405.018 87.0397 405.658 87.0397C408.298 87.0397 410.058 86.1597 411.418 82.9597L413.978 77.1197L399.418 41.9197C399.258 41.5197 399.178 41.1997 399.178 40.7997C399.178 39.1197 400.458 37.7597 402.138 37.7597C403.418 37.7597 404.538 38.5597 404.938 39.5997L417.178 69.7597L429.338 39.5997C429.738 38.5597 430.938 37.7597 432.138 37.7597C433.898 37.7597 435.178 39.1197 435.178 40.7997C435.178 41.1997 435.098 41.5997 434.938 41.9997L417.178 84.5597C414.858 90.1597 410.938 92.3197 405.818 92.3997C405.258 92.3997 404.698 92.3997 404.058 92.2397C402.538 92.0797 401.498 90.9597 401.498 89.5997ZM504.782 77.0397C502.942 77.0397 501.502 75.5197 501.502 73.7597V52.2397H470.302V73.7597C470.302 75.5197 468.782 77.0397 467.022 77.0397C465.102 77.0397 463.662 75.5197 463.662 73.7597V26.3197C463.662 24.5597 465.102 23.0397 466.942 23.0397C468.782 23.0397 470.302 24.5597 470.302 26.3197V46.3197H501.502V26.3197C501.502 24.5597 502.942 23.0397 504.862 23.0397C506.702 23.0397 508.142 24.5597 508.142 26.3197V73.7597C508.142 75.5197 506.702 77.0397 504.782 77.0397ZM518.135 57.3597C518.135 46.1597 526.135 37.1197 537.175 37.1197C548.855 37.1197 555.735 46.2397 555.735 56.3197C555.735 58.2397 554.455 59.3597 552.215 59.3597H524.455C524.935 66.6397 530.055 72.7197 538.375 72.7197C542.135 72.7197 545.735 71.4397 548.775 69.0397C549.175 68.7997 549.655 68.7197 550.135 68.7197C551.495 68.7197 552.615 69.7597 552.615 71.1197C552.615 71.9197 552.215 72.6397 551.575 73.1197C547.735 76.0797 543.175 77.6797 537.815 77.6797C526.375 77.6797 518.135 69.4397 518.135 57.3597ZM537.095 42.0797C528.855 42.0797 524.775 49.0397 524.455 54.9597H549.815C549.735 49.1997 545.895 42.0797 537.095 42.0797ZM582.013 37.4397C583.773 37.4397 584.733 38.7997 584.733 40.3197C584.733 41.7597 583.533 43.0397 581.453 43.2797C577.933 43.5197 573.213 46.2397 571.453 49.3597V74.0797C571.453 75.6797 570.093 77.0397 568.493 77.0397C566.813 77.0397 565.453 75.6797 565.453 74.0797V40.7197C565.453 39.1197 566.813 37.7597 568.413 37.7597C570.093 37.7597 571.453 39.1197 571.453 40.7197V44.3197C573.773 41.1997 576.973 38.6397 580.093 37.8397C580.893 37.5997 581.373 37.4397 582.013 37.4397ZM622.819 23.0397C624.499 23.0397 625.859 24.3997 625.859 25.9997V74.0797C625.859 75.6797 624.499 77.0397 622.819 77.0397C621.219 77.0397 619.859 75.6797 619.859 74.0797V70.9597C616.979 74.8797 612.259 77.6797 606.819 77.6797C596.739 77.6797 589.619 69.9997 589.619 57.4397C589.619 45.1197 596.659 37.1197 606.819 37.1197C612.019 37.1197 616.659 39.6797 619.859 43.9997V25.9997C619.859 24.3997 621.219 23.0397 622.819 23.0397ZM608.259 72.3197C613.059 72.3197 617.699 69.5997 619.859 66.2397V48.7197C617.699 45.3597 613.059 42.4797 608.259 42.4797C600.499 42.4797 595.859 48.8797 595.859 57.4397C595.859 65.9997 600.499 72.3197 608.259 72.3197Z" fill="black"/>
</g>
<defs>
<filter id="filter0_f_13287_1293" x="20.365" y="18.1597" width="609.494" height="78.2402" filterUnits="userSpaceOnUse" color-interpolation-filters="sRGB">
<feFlood flood-opacity="0" result="BackgroundImageFix"/>
<feBlend mode="normal" in="SourceGraphic" in2="BackgroundImageFix" result="shape"/>
<feGaussianBlur stdDeviation="2" result="effect1_foregroundBlur_13287_1293"/>
</filter>
<filter id="filter1_d_13287_1293" x="20.365" y="22.1597" width="609.494" height="78.2402" filterUnits="userSpaceOnUse" color-interpolation-filters="sRGB">
<feFlood flood-opacity="0" result="BackgroundImageFix"/>
<feColorMatrix in="SourceAlpha" type="matrix" values="0 0 0 0 0 0 0 0 0 0 0 0 0 0 0 0 0 0 127 0" result="hardAlpha"/>
<feOffset dy="4"/>
<feGaussianBlur stdDeviation="2"/>
<feComposite in2="hardAlpha" operator="out"/>
<feColorMatrix type="matrix" values="0 0 0 0 0 0 0 0 0 0 0 0 0 0 0 0 0 0 0.25 0"/>
<feBlend mode="normal" in2="BackgroundImageFix" result="effect1_dropShadow_13287_1293"/>
<feBlend mode="normal" in="SourceGraphic" in2="effect1_dropShadow_13287_1293" result="shape"/>
</filter>
</defs>
</svg>
